<svg xmlns="http://www.w3.org/2000/svg" xmlns:xlink="http://www.w3.org/1999/xlink" fill="none" version="1.1" width="14" height="14" viewBox="0 0 14 14"><g transform="matrix(1,0,0,-1,0,28)"><path d="M1.59375,27.1562L0,24L1.59375,27.1562L0,24L6.5,24L6.5,28L2.9375,28Q2.03125,27.9688,1.59375,27.1562ZM7.5,24L14,24L7.5,24L14,24L12.4062,27.1562Q11.9688,27.9688,11.0625,28L7.5,28L7.5,24ZM14,23L0,23L14,23L0,23L0,16Q0.03125,15.15625,0.59375,14.59375Q1.15625,14.03125,2,14L12,14Q12.8438,14.03125,13.4062,14.59375Q13.9688,15.15625,14,16L14,23Z" fill="#9CA3AF" fill-opacity="1" style="mix-blend-mode:passthrough"/></g></svg>