<svg xmlns="http://www.w3.org/2000/svg" xmlns:xlink="http://www.w3.org/1999/xlink" fill="none" version="1.1" width="17.84583282470703" height="16" viewBox="0 0 17.84583282470703 16"><g transform="matrix(1,0,0,-1,0,32)"><path d="M0,31.25Q0.0625,31.9375,0.75,32L2.1875,32Q3.25,31.9375,3.75,31L16.5938,31Q17.2188,30.9688,17.5938,30.5Q17.9375,30.0312,17.8125,29.4375L16.5312,24.65625Q16.3125,23.90625,15.7188,23.46875Q15.125,23,14.3438,23L5.34375,23L5.5,22.09375Q5.65625,21.53125,6.25,21.5L15.25,21.5Q15.9375,21.4375,16,20.75Q15.9375,20.0625,15.25,20L6.25,20Q5.40625,20,4.8125,20.53125Q4.1875,21.03125,4.03125,21.8125L2.40625,30.2812Q2.375,30.5,2.1875,30.5L0.75,30.5Q0.0625,30.5625,0,31.25ZM4,17.5Q4.03125,18.34375,4.75,18.8125Q5.5,19.1875,6.25,18.8125Q6.96875,18.34375,7,17.5Q6.96875,16.65625,6.25,16.1875Q5.5,15.8125,4.75,16.1875Q4.03125,16.65625,4,17.5ZM14.5,19Q15.3438,18.96875,15.8125,18.25Q16.1875,17.5,15.8125,16.75Q15.3438,16.03125,14.5,16Q13.6562,16.03125,13.1875,16.75Q12.8125,17.5,13.1875,18.25Q13.6562,18.96875,14.5,19Z" fill="#9CA3AF" fill-opacity="1" style="mix-blend-mode:passthrough"/></g></svg>