<svg xmlns="http://www.w3.org/2000/svg" xmlns:xlink="http://www.w3.org/1999/xlink" fill="none" version="1.1" width="16" height="16" viewBox="0 0 16 16"><g transform="matrix(1,0,0,-1,0,32)"><path d="M8,30.5Q5.25,30.4375,3.40625,28.5938Q1.5625,26.75,1.5,24L1.5,22.75Q1.4375,22.0625,0.75,22Q0.0625,22.0625,0,22.75L0,24Q0.03125,26.25,1.09375,28.0312Q2.15625,29.8438,3.96875,30.9062Q5.75,31.9688,8,32Q10.25,31.9688,12.0312,30.9062Q13.8438,29.8438,14.9062,28.0312Q15.9688,26.25,16,24L16,19.5Q15.9688,18.34375,15.1875,17.5625Q14.4062,16.78125,13.25,16.75L9.8125,16.75Q9.375,16.03125,8.5,16L7.5,16Q6.875,16.03125,6.4375,16.4375Q6.03125,16.875,6,17.5Q6.03125,18.125,6.4375,18.5625Q6.875,18.96875,7.5,19L8.5,19Q9.375,18.96875,9.8125,18.25L13.25,18.25Q13.7812,18.25,14.125,18.625Q14.5,18.96875,14.5,19.5L14.5,24Q14.4375,26.75,12.5938,28.5938Q10.75,30.4375,8,30.5ZM4.5,25.5L5,25.5L4.5,25.5L5,25.5Q5.4375,25.5,5.71875,25.21875Q6,24.9375,6,24.5L6,21Q6,20.5625,5.71875,20.28125Q5.4375,20,5,20L4.5,20Q3.65625,20.03125,3.09375,20.59375Q2.53125,21.15625,2.5,22L2.5,23.5Q2.53125,24.34375,3.09375,24.90625Q3.65625,25.46875,4.5,25.5ZM11.5,25.5Q12.3438,25.46875,12.9062,24.90625Q13.4688,24.34375,13.5,23.5L13.5,22Q13.4688,21.15625,12.9062,20.59375Q12.3438,20.03125,11.5,20L11,20Q10.5625,20,10.2812,20.28125Q10,20.5625,10,21L10,24.5Q10,24.9375,10.2812,25.21875Q10.5625,25.5,11,25.5L11.5,25.5Z" fill="#9CA3AF" fill-opacity="1" style="mix-blend-mode:passthrough"/></g></svg>