<svg xmlns="http://www.w3.org/2000/svg" xmlns:xlink="http://www.w3.org/1999/xlink" fill="none" version="1.1" width="15.071428298950195" height="16" viewBox="0 0 15.071428298950195 16"><g transform="matrix(1,0,0,-1,0,32)"><path d="M15.0357,26.7812Q15.1607,26.3438,14.8482,26.0312L13.4732,24.78125Q13.5357,24.40625,13.5357,24Q13.5357,23.59375,13.4732,23.21875L14.8482,21.96875Q15.1607,21.65625,15.0357,21.21875Q14.817,20.65625,14.5357,20.125L14.3795,19.875Q14.067,19.375,13.692,18.90625Q13.3795,18.5625,12.942,18.6875L11.192,19.25Q10.567,18.75,9.81696,18.46875L9.44196,16.65625Q9.31696,16.21875,8.84821,16.125Q8.22321,16,7.53571,16Q6.84821,16,6.19196,16.125Q5.75446,16.21875,5.62946,16.65625L5.25446,18.46875Q4.50446,18.75,3.87946,19.25L2.12946,18.6875Q1.69196,18.5625,1.37946,18.90625Q0.973214,19.375,0.691964,19.875L0.535714,20.125Q0.254464,20.65625,0.0357143,21.1875Q-0.0892857,21.65625,0.223214,21.96875L1.59821,23.1875Q1.53571,23.59375,1.53571,24Q1.53571,24.40625,1.59821,24.78125L0.223214,26.0312Q-0.0892857,26.3438,0.0357143,26.7812Q0.254464,27.3438,0.535714,27.875L0.691964,28.125Q0.973214,28.625,1.37946,29.0938Q1.69196,29.4375,2.12946,29.3125L3.87946,28.75Q4.50446,29.25,5.25446,29.5625L5.62946,31.3438Q5.75446,31.7812,6.22321,31.875Q6.84821,32,7.53571,32Q8.22321,32,8.87946,31.875Q9.31696,31.7812,9.44196,31.3438L9.81696,29.5625Q10.567,29.25,11.192,28.75L12.942,29.3125Q13.3795,29.4375,13.692,29.0938Q14.0982,28.625,14.4107,28.125L14.5357,27.875Q14.817,27.3438,15.0357,26.7812ZM7.53571,21.5Q8.94196,21.53125,9.69196,22.75Q10.3795,24,9.69196,25.25Q8.94196,26.4688,7.53571,26.5Q6.12946,26.4688,5.37946,25.25Q4.69196,24,5.37946,22.75Q6.12946,21.53125,7.53571,21.5Z" fill="#9CA3AF" fill-opacity="1" style="mix-blend-mode:passthrough"/></g></svg>