<svg xmlns="http://www.w3.org/2000/svg" xmlns:xlink="http://www.w3.org/1999/xlink" fill="none" version="1.1" width="16" height="16.010417938232422" viewBox="0 0 16 16.010417938232422"><g transform="matrix(1,0,0,-1,0,32.020835876464844)"><path d="M15,31.010417938232422Q14.9688,31.66661793823242,14.375,31.947917938232422Q13.7812,32.16661793823242,13.2812,31.729217938232424L11.9375,30.354217938232424Q10.7812,29.229217938232424,9.34375,28.604217938232424Q7.875,28.010417938232422,6.28125,28.010417938232422L6,28.010417938232422L2,28.010417938232422Q1.15625,27.979217938232424,0.59375,27.41661793823242Q0.03125,26.854217938232424,0,26.010417938232422L0,23.010417938232422Q0.03125,22.166667938232422,0.59375,21.604167938232422Q1.15625,21.041667938232422,2,21.010417938232422L2,17.010417938232422Q2,16.572917938232422,2.28125,16.291667938232422Q2.5625,16.010417938232422,3,16.010417938232422L5,16.010417938232422Q5.4375,16.010417938232422,5.71875,16.291667938232422Q6,16.572917938232422,6,17.010417938232422L6,21.010417938232422L6.28125,21.010417938232422Q7.875,21.010417938232422,9.34375,20.385417938232422Q10.7812,19.791667938232422,11.9375,18.666667938232422L13.2812,17.291667938232422Q13.7812,16.854167938232422,14.375,17.072917938232422Q14.9688,17.354167938232422,15,18.010417938232422L15,22.635417938232422Q15.4375,22.854167938232422,15.7188,23.354167938232422Q16,23.854167938232422,16,24.510417938232422Q16,25.166667938232422,15.7188,25.666667938232422Q15.4375,26.197917938232422,15,26.385417938232422L15,31.010417938232422ZM13,28.604217938232424L13,24.510417938232422L13,28.604217938232424L13,24.510417938232422L13,20.416667938232422Q11.5938,21.666667938232422,9.875,22.322917938232422Q8.15625,23.010417938232422,6.28125,23.010417938232422L6,23.010417938232422L6,26.010417938232422L6.28125,26.010417938232422Q8.15625,26.010417938232422,9.875,26.697917938232422Q11.5938,27.354217938232424,13,28.604217938232424Z" fill="#9CA3AF" fill-opacity="1" style="mix-blend-mode:passthrough"/></g></svg>